# xmcd
#
# Track frame offsets:
#	150
#	16632
#	20248
#	33710
#	49140
#	61529
#	75604
#	88578
#	101957
#	116259
#	130622
#	144816
#	158052
#	171977
#	187326
#	200944
#	215396
#	229365
#
# Disc length: 3243 seconds
#
# Revision: 0
# Processed by: cddbd v1.5.2PL0 Copyright (c) Steve Scherf et al.
# Submitted via: EasyCDDAExtractor 16.0.6.1
#
DISCID=f80ca912
DTITLE=Συλλογικός δίσκος - Τα 45άρια 1.1
DYEAR=1999
DGENRE=Λαϊκή
TTITLE0=Μπιθικώτσης Γρηγόρης - Τρελλοκόριτσο
TTITLE1=Ρεπάνης Αντώνης - Τι όμορφη που είσαι, όταν κλαις
TTITLE2=Αγγελόπουλος Μανώλης - Τρεις ανθρώπους αγαπώ
TTITLE3=Πάνου Πόλυ - Η παντρεμένη
TTITLE4=Ευσταθίου Αημήτρης-Διαμάντη Λίτσα - Ο μυστήριος
TTITLE5=Γκρέϋ Καίτη - Θα κλάψω σήμερα
TTITLE6=Ρεπάνης Αντώνης - Στου δειλινού τα μονοπάτια
TTITLE7=Αναγνωστάκης Πέτρος - Αθήνα ώρα 12
TTITLE8=Λαμπράκη Χαρούλα - Στου κάτω κόσμου τα σκαλιά
TTITLE9=Μενιδιάτης Μιχάλης - Πήραν τα στήθια μου φωτιά
TTITLE10=Μαράντη Μαίρη - Παραβάτης είσαι φίλε
TTITLE11=Τσετίνης Μπάμπης - Ο άνθρωπος γεννιέται, δεν γίνεται
TTITLE12=Αναγνωστάκης Πέτρος - Μέσα σε μιά νύχτα
TTITLE13=Αγγελόπουλος Μανώλης - Θλιμένη Ναργκίς
TTITLE14=Γκρέϋ Καίτη - Με γέρασες, με γέρασες
TTITLE15=Μαρκάκης Μπάμπης - Έδειξες, ποια ήσουνα
TTITLE16=Περπινιάδης Βαγγέλης - Νά 'μουνα το σεντονάκι
TTITLE17=Ζαγοραίος Σπύρος - Προσευχή
EXTD=
EXTT0=
EXTT1=
EXTT2=
EXTT3=
EXTT4=
EXTT5=
EXTT6=
EXTT7=
EXTT8=
EXTT9=
EXTT10=
EXTT11=
EXTT12=
EXTT13=
EXTT14=
EXTT15=
EXTT16=
EXTT17=
PLAYORDER=
